<?xml version='1.0' encoding='iso-8859-1'?>
<svg version="1.1" xmlns="http://www.w3.org/2000/svg" viewBox="0 0 379.688 379.688" xmlns:xlink="http://www.w3.org/1999/xlink" enable-background="new 0 0 379.688 379.688">
  <g>
    <path d="m277.696,135.911c-15.608,0-28.308,12.699-28.308,28.309s12.699,28.309 28.308,28.309c15.609,0 28.309-12.699 28.309-28.309s-12.699-28.309-28.309-28.309zm0,41.617c-7.338,0-13.308-5.97-13.308-13.309s5.97-13.309 13.308-13.309c7.339,0 13.309,5.97 13.309,13.309s-5.97,13.309-13.309,13.309z"/>
    <path d="m365.469,223.823c1.559-9.468 2.357-19.124 2.357-28.78 0-37.243-11.451-72.683-33.146-102.71 2.161-3.996 3.39-8.567 3.39-13.421 0-15.609-12.699-28.309-28.308-28.309-4.727,0-9.183,1.171-13.104,3.228-30.392-22.547-66.442-34.445-104.49-34.445-9.574,0-19.157,0.778-28.548,2.311-5.073-7.652-13.759-12.71-23.607-12.71-15.609,0-28.309,12.699-28.309,28.309 0,0.521 0.016,1.038 0.044,1.552-41.084,21.197-72.404,58.013-86.661,101.866-14.097,1.605-25.087,13.601-25.087,28.12 0,11.402 6.78,21.245 16.517,25.726 0,0.161-0.005,0.322-0.005,0.483 0,43.305 15.809,84.694 44.569,116.914-2.262,4.066-3.556,8.742-3.556,13.716 0,15.609 12.699,28.309 28.308,28.309 7.034,0 13.472-2.585 18.428-6.846 26.64,15.423 56.919,23.566 87.909,23.566 22.058,0 43.515-4.027 63.845-11.968 5.197,6.191 12.986,10.135 21.682,10.135 15.609,0 28.309-12.699 28.309-28.309 0-3.578-0.674-6.999-1.89-10.153 17.947-14.873 32.946-33.376 43.743-53.964 1.155,0.144 2.328,0.227 3.521,0.227 15.609,0 28.309-12.699 28.309-28.309-0.001-10.482-5.732-19.645-14.22-24.538zm-42.399-144.911c0,7.338-5.97,13.309-13.308,13.309-7.339,0-13.309-5.97-13.309-13.309s5.97-13.309 13.309-13.309c7.339,0.001 13.308,5.971 13.308,13.309zm-183.056-54.925c7.338,3.55271e-15 13.309,5.97 13.309,13.309 0,7.338-5.97,13.308-13.309,13.308s-13.309-5.97-13.309-13.308c0.001-7.339 5.971-13.309 13.309-13.309zm-111.705,131.538c7.338,0 13.308,5.97 13.308,13.309s-5.97,13.309-13.308,13.309c-7.338,0-13.309-5.97-13.309-13.309s5.97-13.309 13.309-13.309zm57.523,183.456c-7.338,0-13.308-5.97-13.308-13.309s5.97-13.309 13.308-13.309c7.338,0 13.309,5.97 13.309,13.309s-5.971,13.309-13.309,13.309zm191.864,14.887c-7.338,0-13.308-5.97-13.308-13.309s5.97-13.309 13.308-13.309c7.339,0 13.309,5.97 13.309,13.309s-5.97,13.309-13.309,13.309zm17.482-35.55c-4.818-3.795-10.887-6.068-17.482-6.068-15.608,0-28.308,12.699-28.308,28.309 0,1.535 0.127,3.041 0.363,4.51-18.347,7.053-37.695,10.632-57.583,10.632-28,0-55.367-7.252-79.506-21.021 0.953-2.832 1.478-5.859 1.478-9.008 0-15.609-12.699-28.309-28.309-28.309-5.188,0-10.051,1.409-14.236,3.856-25.458-28.88-39.609-65.691-40.062-104.266 14.096-1.607 25.083-13.601 25.083-28.12 0-11.401-6.779-21.243-16.514-25.725 13.123-38.41 40.621-70.71 76.527-89.881 5.102,7.465 13.68,12.376 23.385,12.376 15.609,0 28.309-12.699 28.309-28.308 0-0.382-0.014-0.76-0.029-1.138 7.87-1.17 15.873-1.772 23.875-1.772 33.889,0 66.039,10.323 93.364,29.902-2.587,4.271-4.079,9.276-4.079,14.624 0,15.609 12.699,28.309 28.309,28.309 5.222,0 10.114-1.427 14.318-3.903 18.822,26.98 28.746,58.569 28.746,91.725 0,8.393-0.661,16.781-1.948,25.021-15.378,0.269-27.808,12.855-27.808,28.296 0,9.04 4.264,17.097 10.881,22.284-9.699,18.126-22.97,34.441-38.774,47.675zm56.201-56.649c-7.339,0-13.309-5.97-13.309-13.309s5.97-13.309 13.309-13.309 13.309,5.97 13.309,13.309-5.97,13.309-13.309,13.309z"/>
    <path d="m212.978,261.669c-15.609,0-28.309,12.699-28.309,28.308s12.699,28.309 28.309,28.309c15.608,0 28.308-12.699 28.308-28.309s-12.7-28.308-28.308-28.308zm0,41.617c-7.339,0-13.309-5.97-13.309-13.309 0-7.338 5.97-13.308 13.309-13.308 7.338,0 13.308,5.97 13.308,13.308-0.001,7.338-5.971,13.309-13.308,13.309z"/>
    <path d="m97.393,187.543c-15.609,0-28.309,12.699-28.309,28.309s12.699,28.309 28.309,28.309 28.308-12.699 28.308-28.309-12.699-28.309-28.308-28.309zm0,41.617c-7.338,0-13.309-5.97-13.309-13.309s5.97-13.309 13.309-13.309c7.338,0 13.308,5.97 13.308,13.309s-5.97,13.309-13.308,13.309z"/>
    <path d="m160.823,107.402c-15.609,0-28.309,12.699-28.309,28.308s12.699,28.309 28.309,28.309 28.309-12.699 28.309-28.309-12.7-28.308-28.309-28.308zm0,41.617c-7.338,0-13.309-5.97-13.309-13.309 0-7.338 5.97-13.308 13.309-13.308s13.309,5.97 13.309,13.308c-0.001,7.338-5.971,13.309-13.309,13.309z"/>
  </g>
</svg>
